<?xml version="1.0" standalone="no"?><!DOCTYPE svg PUBLIC "-//W3C//DTD SVG 1.1//EN" "http://www.w3.org/Graphics/SVG/1.1/DTD/svg11.dtd"><svg t="1504256046767" class="icon" style="" viewBox="0 0 1024 1024" version="1.1" xmlns="http://www.w3.org/2000/svg" p-id="7145" xmlns:xlink="http://www.w3.org/1999/xlink" width="64" height="64"><defs><style type="text/css"></style></defs><path d="M1017.771 511.331c0 280.666-227.523 508.191-508.191 508.191s-508.19-227.525-508.19-508.191c0-280.665 227.523-508.19 508.191-508.19s508.19 227.523 508.19 508.19zM347.724 407.239v-29.447h-73.223c4.88-7.642 9.443-15.387 13.69-23.241h-45.207c-15.281 24.832-33.006 46.589-53.166 65.264 5.731 9.977 11.779 22.711 18.146 38.205 16.555-15.81 31.518-32.366 44.89-49.664h15.281c6.26 10.188 12.417 21.543 18.465 34.065l39.476-14.326c-3.82-6.473-8.014-13.053-12.576-19.739h33.11c-3.715 4.352-7.589 8.384-11.62 12.098 13.583 6.156 25.998 12.204 37.249 18.146 8.277-9.87 15.81-19.95 22.603-30.244h18.943c4.14 9.445 7.904 19.526 11.301 30.244l41.068-8.277c-2.973-7.107-6.262-14.432-9.87-21.967h46.799v-30.563h-90.892c3.713-7.642 7.056-15.387 10.029-23.241h-41.706c-9.447 20.69-20.375 38.256-32.79 52.687zM210.829 669.092h42.661v-196.112h-42.661v196.112zM268.77 489.217l34.702-18.465c-9.764-14.007-20.908-28.864-33.428-44.571l-31.2 16.874c10.825 14.433 20.798 29.821 29.925 46.162zM280.548 647.124h39.476v-14.644h78.795c3.077 11.037 5.783 22.923 8.119 35.657 21.86-0.318 38.496-1.194 49.903-2.627 11.406-1.433 20.269-6.634 26.583-15.599 6.313-8.97 9.472-21.676 9.472-38.124v-167.777h-178.283v35.020h135.622v126.707c0 6.048-1.194 10.799-3.582 14.246-2.388 3.45-4.989 5.411-7.799 5.89-2.813 0.478-8.464 0.716-16.953 0.716v-127.185h-141.353v147.719zM382.426 550.979h-62.399v-20.375h62.399v20.375zM320.028 601.28v-20.375h62.399v20.375h-62.399zM591.588 413.765h237.18v-42.023h-281.75v130.847c0 51.152-10.506 92.325-31.518 123.525 10.825 13.794 21.33 28.334 31.518 43.616 29.713-40.113 44.571-95.721 44.571-166.821v-89.141zM662.583 466.294h-58.897v41.387h56.509c-5.518 53.804-33.906 95.404-85.163 124.798 12.735 13.157 23.771 25.573 33.11 37.249 60.063-37.78 92.642-91.792 97.737-162.047h61.443c-0.426 57.518-2.813 90.097-7.163 97.737-4.352 7.642-12.471 11.461-24.355 11.461-14.433 0-29.609-1.059-45.526-3.184 4.244 17.615 7.427 33.321 9.551 47.118 9.019 0.318 17.615 0.478 25.787 0.478 21.648 0 37.301-1.009 46.958-3.025 9.655-2.016 17.801-7.323 24.434-15.919 6.631-8.596 10.531-20.667 11.7-36.214 1.166-15.546 2.229-35.418 3.184-59.613s1.591-50.939 1.91-80.227h-105.696c0.741-15.81 1.166-31.412 1.274-46.799h-45.843c0 16.874-0.318 32.474-0.955 46.799z" p-id="7146" fill="#2c3e50"></path></svg>