<?xml version="1.0" standalone="no"?><!DOCTYPE svg PUBLIC "-//W3C//DTD SVG 1.1//EN" "http://www.w3.org/Graphics/SVG/1.1/DTD/svg11.dtd"><svg t="1504247599772" class="icon" style="" viewBox="0 0 1024 1024" version="1.1" xmlns="http://www.w3.org/2000/svg" p-id="1179" xmlns:xlink="http://www.w3.org/1999/xlink" width="32" height="32"><defs><style type="text/css"></style></defs><path d="M962.47808 519.12704z m-450.57024 450.56512c-225.536 0-408.33536-182.77376-408.33536-408.34048 0-170.70592 104.80128-316.88704 253.45024-377.87136v0.1024a41.86624 41.86624 0 0 1 14.10048-2.41152c23.26016 0 42.25536 18.90304 42.25536 42.22464a42.27072 42.27072 0 0 1-28.2112 39.84896v0.03072c-115.83488 49.27488-197.11488 164.1984-197.11488 298.05056 0 178.88256 144.97792 323.86048 323.85536 323.86048 178.88256 0 323.85536-145.00864 323.85536-323.86048 0-133.85216-81.21856-248.75008-197.15072-298.05056a42.20928 42.20928 0 0 1-28.14464-39.84384 42.20928 42.20928 0 0 1 56.29952-39.81824v-0.1024c148.77696 60.98944 253.45024 207.17056 253.45024 377.87136 0.04096 225.53088-182.79936 408.30976-408.30976 408.30976m0-436.48512c-23.29088 0-42.21952-18.90304-42.21952-42.26048V110.79168c-0.03072-23.27552 18.92864-42.22976 42.21952-42.22976a42.24 42.24 0 0 1 42.22976 42.22976v380.1344c0 23.3472-18.8928 42.28096-42.22976 42.28096" fill="#2c3e50" p-id="1180"></path></svg>